# xmcd CD database file
# Copyright (C) 1997 Ti Kan
# 
# Track frame offsets:
#     150
#     17895
#     37897
#     56917
#     77320
#     94525
#     111917
#     133065
#     154362
#     176400
#     196370
# 
# Disc length: 2959 seconds
# 
# Revision: 0
# Processed by: cddbd v1.4b41PL1 Copyright (c) Steve Scherf et al.
# Submitted via: DiscPlay 4.0.1
# 
DISCID=890b8d0b
DTITLE=Ann Peebles - Full Time Lover
DYEAR=1900
DGENRE=
TTITLE0=Bouncin  Jack
TTITLE1=St. Louis Woman
TTITLE2=Read Me My Rights
TTITLE3=Full Time Lover
TTITLE4=Fear No Evil
TTITLE5=Nobody But You
TTITLE6=Ain t No Business Like You
TTITLE7=I Miss You
TTITLE8=Just You Just Me
TTITLE9=He s My Superman
TTITLE10=I Can t Stand The Rain
EXTD=
EXTT0=
EXTT1=
EXTT2=
EXTT3=
EXTT4=
EXTT5=
EXTT6=
EXTT7=
EXTT8=
EXTT9=
EXTT10=
PLAYORDER=
